HIERARCHY
ROOT hip
{
  OFFSET 0 0 0
  CHANNELS 6 Xposition Yposition Zposition Zrotation Yrotation Xrotation
  JOINT abdomen
  {
    OFFSET 0 20.6881 -0.73152
    CHANNELS 3 Zrotation Xrotation Yrotation
    JOINT chest
    {
      OFFSET 0 11.7043 -0.48768
      CHANNELS 3 Zrotation Xrotation Yrotation
      JOINT neck
      {
        OFFSET 0 22.1894 -2.19456
        CHANNELS 3 Zrotation Xrotation Yrotation
        JOINT head
        {
          OFFSET -0.24384 7.07133 1.2192
          CHANNELS 3 Zrotation Xrotation Yrotation
          JOINT leftEye
          {
            OFFSET 4.14528 8.04674 8.04672
            CHANNELS 3 Zrotation Xrotation Yrotation
            End Site
            {
              OFFSET 1 0 0
            }
          }
          JOINT rightEye
          {
            OFFSET -3.6576 8.04674 8.04672
            CHANNELS 3 Zrotation Xrotation Yrotation
            End Site
            {
              OFFSET 1 0 0
            }
          }
        }
      }
      JOINT rCollar
      {
        OFFSET -2.68224 19.2634 -4.8768
        CHANNELS 3 Zrotation Xrotation Yrotation
        JOINT rShldr
        {
          OFFSET -8.77824 -1.95073 1.46304
          CHANNELS 3 Zrotation Xrotation Yrotation
          JOINT rForeArm
          {
            OFFSET -28.1742 -1.7115 0.48768
            CHANNELS 3 Zrotation Xrotation Yrotation
            JOINT rHand
            {
              OFFSET -22.5879 0.773209 7.07136
              CHANNELS 3 Zrotation Xrotation Yrotation
              JOINT rThumb1
              {
                OFFSET -1.2192 -0.487915 3.41376
                CHANNELS 3 Zrotation Xrotation Yrotation
                JOINT rThumb2
                {
                  OFFSET -3.37035 -0.52449 3.41376
                  CHANNELS 3 Zrotation Xrotation Yrotation
                  End Site
                  {
                    OFFSET -1.78271 -1.18214 1.43049
                  }
                }
              }
              JOINT rIndex1
              {
                OFFSET -7.75947 0.938293 5.60832
                CHANNELS 3 Zrotation Xrotation Yrotation
                JOINT rIndex2
                {
                  OFFSET -2.54057 -0.884171 1.56538
                  CHANNELS 3 Zrotation Xrotation Yrotation
                  End Site
                  {
                    OFFSET -1.62519 -0.234802 1.16502
                  }
                }
              }
              JOINT rMid1
              {
                OFFSET -8.24714 1.18213 3.41376
                CHANNELS 3 Zrotation Xrotation Yrotation
                JOINT rMid2
                {
                  OFFSET -3.10165 -0.590103 1.0647
                  CHANNELS 3 Zrotation Xrotation Yrotation
                  End Site
                  {
                    OFFSET -2.48547 -0.328903 0.83742
                  }
                }
              }
              JOINT rRing1
              {
                OFFSET -8.82822 0.546677 1.51678
                CHANNELS 3 Zrotation Xrotation Yrotation
                JOINT rRing2
                {
                  OFFSET -2.60934 -0.819778 -0.0198488
                  CHANNELS 3 Zrotation Xrotation Yrotation
                  End Site
                  {
                    OFFSET -2.33842 -0.294052 0.168128
                  }
                }
              }
              JOINT rPinky1
              {
                OFFSET -8.27202 -0.0477905 -0.4584
                CHANNELS 3 Zrotation Xrotation Yrotation
                JOINT rPinky2
                {
                  OFFSET -1.82734 -0.647385 -0.700984
                  CHANNELS 3 Zrotation Xrotation Yrotation
                  End Site
                  {
                    OFFSET -1.69225 -0.51767 -0.607171
                  }
                }
              }
            }
          }
        }
      }
      JOINT lCollar
      {
        OFFSET 2.68224 19.2634 -4.8768
        CHANNELS 3 Zrotation Xrotation Yrotation
        JOINT lShldr
        {
          OFFSET 8.77824 -1.95073 1.46304
          CHANNELS 3 Zrotation Xrotation Yrotation
          JOINT lForeArm
          {
            OFFSET 28.1742 -1.7115 0.48768
            CHANNELS 3 Zrotation Xrotation Yrotation
            JOINT lHand
            {
              OFFSET 22.5879 0.773209 7.07136
              CHANNELS 3 Zrotation Xrotation Yrotation
              JOINT lThumb1
              {
                OFFSET 1.2192 -0.487915 3.41376
                CHANNELS 3 Zrotation Xrotation Yrotation
                JOINT lThumb2
                {
                  OFFSET 3.37035 -0.52449 3.41376
                  CHANNELS 3 Zrotation Xrotation Yrotation
                  End Site
                  {
                    OFFSET 1.78271 -1.18214 1.43049
                  }
                }
              }
              JOINT lIndex1
              {
                OFFSET 7.75947 0.938293 5.60832
                CHANNELS 3 Zrotation Xrotation Yrotation
                JOINT lIndex2
                {
                  OFFSET 2.54057 -0.884171 1.56538
                  CHANNELS 3 Zrotation Xrotation Yrotation
                  End Site
                  {
                    OFFSET 1.62519 -0.234802 1.16502
                  }
                }
              }
              JOINT lMid1
              {
                OFFSET 8.24714 1.18213 3.41376
                CHANNELS 3 Zrotation Xrotation Yrotation
                JOINT lMid2
                {
                  OFFSET 3.10165 -0.590103 1.0647
                  CHANNELS 3 Zrotation Xrotation Yrotation
                  End Site
                  {
                    OFFSET 2.48547 -0.328903 0.83742
                  }
                }
              }
              JOINT lRing1
              {
                OFFSET 8.82822 0.546677 1.51678
                CHANNELS 3 Zrotation Xrotation Yrotation
                JOINT lRing2
                {
                  OFFSET 2.60934 -0.819778 -0.0198488
                  CHANNELS 3 Zrotation Xrotation Yrotation
                  End Site
                  {
                    OFFSET 2.33842 -0.294052 0.168128
                  }
                }
              }
              JOINT lPinky1
              {
                OFFSET 8.27202 -0.0477905 -0.4584
                CHANNELS 3 Zrotation Xrotation Yrotation
                JOINT lPinky2
                {
                  OFFSET 1.82734 -0.647385 -0.700984
                  CHANNELS 3 Zrotation Xrotation Yrotation
                  End Site
                  {
                    OFFSET 1.69225 -0.51767 -0.607171
                  }
                }
              }
            }
          }
        }
      }
    }
  }
  JOINT rButtock
  {
    OFFSET -8.77824 4.35084 1.2192
    CHANNELS 3 Zrotation Xrotation Yrotation
    JOINT rThigh
    {
      OFFSET 0 -1.70687 -2.19456
      CHANNELS 3 Zrotation Xrotation Yrotation
      JOINT rShin
      {
        OFFSET 0 -36.8199 0.73152
        CHANNELS 3 Zrotation Xrotation Yrotation
        JOINT rFoot
        {
          OFFSET 0.73152 -45.1104 -5.12064
          CHANNELS 3 Zrotation Xrotation Yrotation
          End Site
          {
            OFFSET -1.1221 -3.69964 12.103
          }
        }
      }
    }
  }
  JOINT lButtock
  {
    OFFSET 8.77824 4.35084 1.2192
    CHANNELS 3 Zrotation Xrotation Yrotation
    JOINT lThigh
    {
      OFFSET 0 -1.70687 -2.19456
      CHANNELS 3 Zrotation Xrotation Yrotation
      JOINT lShin
      {
        OFFSET 0 -36.8199 0.73152
        CHANNELS 3 Zrotation Xrotation Yrotation
        JOINT lFoot
        {
          OFFSET -0.73152 -45.1104 -5.12064
          CHANNELS 3 Zrotation Xrotation Yrotation
          End Site
          {
            OFFSET 1.1221 -3.69964 12.103
          }
        }
      }
    }
  }
}
MOTION
Frames:	6
Frame Time:	0.00833333
68.397 84.1089 -6.12442 0.0 0.0 0.0 -1.50369 -0.00293038 -0.0409976 -0.414513 0.000755898 -0.0717876 -6.53115e-15 7.95139e-16 1.49089e-16 -1.91517e-14 9.54166e-15 4.67455e-16 -0.0 0.0 0.0 -0.0 0.0 0.0 -2.98312e-15 1.28123e-17 1.49089e-16 -6.72475e-14 5.65294e-16 2.18663e-15 -1.17323e-12 3.63378e-13 4.77083e-14 -1.34633e-11 -2.94922e-13 2.38542e-13 -3.17529e-11 1.4737e-13 6.36111e-13 -5.48411e-11 2.51264e-13 1.09173e-12 -3.17475e-11 1.48691e-13 6.2975e-13 7.73091 5.47488 0.417314 -3.17518e-11 1.47498e-13 6.3293e-13 2.90554 0.965183 0.102902 -3.17508e-11 1.47001e-13 6.3134e-13 10.2786 0.731801 0.0259123 -3.1757e-11 1.49089e-13 6.3293e-13 2.22167 -0.733487 -0.20892 -3.08002e-15 1.43653e-17 -4.96962e-17 -7.07531e-14 3.78933e-16 1.98785e-16 -1.17879e-12 -3.39922e-13 1.27222e-14 -1.34596e-11 4.02464e-13 2.73528e-13 -3.17512e-11 1.34411e-13 6.23389e-13 -5.48304e-11 2.3218e-13 1.09173e-12 -3.1757e-11 1.34378e-13 6.3293e-13 -7.73091 5.47488 -0.417314 -3.17511e-11 1.34279e-13 6.23389e-13 -2.90554 0.965183 -0.102902 -3.17622e-11 1.34378e-13 6.2975e-13 -10.2786 0.731801 -0.0259123 -3.17471e-11 1.35969e-13 6.23389e-13 -2.22167 -0.733487 0.20892 -2.03217e-16 0.0 -3.88251e-19 -0.636246 -1.92306 -0.00650559 -0.00920583 -2.07856 -0.0759962 -0.504511 3.99732 0.139182 2.03217e-16 0.0 3.88251e-19 -1.65029 -6.46949 0.152895 -0.00229197 6.15691 -0.0670401 0.526214 0.308395 -0.0661348
64.317 81.8246 -13.937 -140.274 -81.9915 149.698 0.0911278 5.05133 -1.43895 0.930956 -1.35925 -0.39171 -2.17553 -1.15697 2.49917 1.36091 -4.44405 5.89694 -0.0 0.0 0.0 -0.0 0.0 0.0 3.12531e-14 3.58622e-14 -7.8921e-14 13.8184 13.0754 8.84515 -20.5996 -18.3899 15.1491 0.520252 -16.1224 -1.95511 -3.42055e-10 -4.62775e-11 -9.53625e-11 -5.82467e-10 -5.87345e-11 -1.80036e-10 -3.42049e-10 -4.62763e-11 -9.53697e-11 7.73091 5.47488 0.417314 -3.42055e-10 -4.62771e-11 -9.53657e-11 2.90554 0.965183 0.102902 -3.42051e-10 -4.62781e-11 -9.53657e-11 10.2786 0.731801 0.0259123 -3.42058e-10 -4.62761e-11 -9.53634e-11 2.22167 -0.733487 -0.20892 3.11841e-14 3.58629e-14 -7.90891e-14 -24.0271 24.9129 -14.5811 8.74281 -5.62251 -11.3976 -0.00842932 -2.07108 0.290429 -3.75299e-10 -1.77034e-09 3.70078e-10 -6.51137e-10 -3.07346e-09 6.42746e-10 -3.75304e-10 -1.77035e-09 3.70085e-10 -7.73091 5.47488 -0.417314 -3.75299e-10 -1.77036e-09 3.7008e-10 -2.90554 0.965183 -0.102902 -3.75309e-10 -1.77035e-09 3.70083e-10 -10.2786 0.731801 -0.0259123 -3.75294e-10 -1.77034e-09 3.70074e-10 -2.22167 -0.733487 0.20892 -2.03217e-16 0.0 -3.88251e-19 -1.83052 -11.834 0.615692 -0.0278847 10.1651 0.0627858 -0.439615 -1.19041 1.15574 2.03217e-16 0.0 3.88251e-19 4.27982 -14.0348 1.96999 -0.00896773 14.9066 -0.209359 0.568441 -2.01211 0.0911512
64.2658 81.7906 -13.8205 -143.874 -81.2936 153.211 2.06076 10.3877 -2.96916 2.34775 -2.79024 -0.734494 -4.38269 -2.40791 5.1371 3.80944 -8.96309 12.2423 -0.0 0.0 0.0 -0.0 0.0 0.0 7.00566e-14 8.81921e-14 -1.72256e-13 23.775 25.8829 19.7596 -30.5549 -33.2218 36.1202 -0.33605 -33.1094 -4.61504 -6.57924e-10 -8.78308e-11 -1.80824e-10 -1.11996e-09 -1.0531e-10 -3.43588e-10 -6.57916e-10 -8.78298e-11 -1.80832e-10 7.73091 5.47488 0.417314 -6.57923e-10 -8.78302e-11 -1.80828e-10 2.90554 0.965183 0.102902 -6.57917e-10 -8.78318e-11 -1.80826e-10 10.2786 0.731801 0.0259123 -6.57925e-10 -8.78299e-11 -1.80823e-10 2.22167 -0.733487 -0.20892 7.00198e-14 8.81915e-14 -1.7239e-13 -31.4049 45.027 -40.1676 15.5633 -10.7961 -23.7572 0.0056401 -4.21692 0.592653 -7.73275e-10 -3.81476e-09 7.91441e-10 -1.34191e-09 -6.62257e-09 1.3745e-09 -7.73279e-10 -3.81476e-09 7.91446e-10 -7.73091 5.47488 -0.417314 -7.73275e-10 -3.81479e-09 7.91445e-10 -2.90554 0.965183 -0.102902 -7.73283e-10 -3.81476e-09 7.91445e-10 -10.2786 0.731801 -0.0259123 -7.73269e-10 -3.81476e-09 7.91434e-10 -2.22167 -0.733487 0.20892 -2.03217e-16 0.0 -3.88251e-19 -2.83173 -22.2987 1.32955 -0.11634 23.1029 0.225263 -0.171619 -6.6609 2.23958 2.03217e-16 0.0 3.88251e-19 11.1154 -22.0058 4.03691 0.0358214 24.1415 -0.378456 0.626021 -4.45889 0.252494
64.1941 81.7547 -13.6226 -147.216 -80.7468 156.438 4.04263 15.1225 -4.36968 3.57623 -4.07868 -1.03384 -6.22431 -3.44447 7.50963 6.83661 -12.7618 18.0994 -0.0 0.0 0.0 -0.0 0.0 0.0 9.97254e-14 1.07561e-13 -2.37061e-13 27.6215 35.0764 32.183 -29.9854 -37.7867 59.7887 -3.11911 -48.0833 -8.45139 -9.62661e-10 -1.39127e-10 -2.8736e-10 -1.63772e-09 -1.76706e-10 -5.4229e-10 -9.62651e-10 -1.39126e-10 -2.87369e-10 7.73091 5.47488 0.417314 -9.6266e-10 -1.39126e-10 -2.87363e-10 2.90554 0.965183 0.102902 -9.62652e-10 -1.39128e-10 -2.8736e-10 10.2786 0.731801 0.0259123 -9.6266e-10 -1.39127e-10 -2.87356e-10 2.22167 -0.733487 -0.20892 9.97123e-14 1.0756e-13 -2.37168e-13 -20.8825 48.6378 -74.6883 19.7931 -14.1902 -35.2527 0.0380154 -6.21259 0.875863 -1.0624e-09 -5.3113e-09 1.10899e-09 -1.84375e-09 -9.22085e-09 1.92606e-09 -1.0624e-09 -5.31131e-09 1.10899e-09 -7.73091 5.47488 -0.417314 -1.0624e-09 -5.31135e-09 1.10899e-09 -2.90554 0.965183 -0.102902 -1.0624e-09 -5.31131e-09 1.10899e-09 -10.2786 0.731801 -0.0259123 -1.06239e-09 -5.3113e-09 1.10898e-09 -2.22167 -0.733487 0.20892 -2.03217e-16 0.0 -3.88251e-19 -3.47594 -31.6402 2.13886 -0.270649 34.6517 0.410022 0.250995 -11.5485 3.25474 2.03217e-16 0.0 3.88251e-19 17.7666 -29.0457 6.21363 0.131135 32.4051 -0.560994 0.691311 -6.65297 0.408302
64.167 81.7226 -13.4092 -150.062 -80.2717 159.245 5.49504 18.3911 -5.3142 4.36678 -5.01128 -1.22244 -7.37876 -3.97175 9.2056 9.38962 -15.2947 22.3552 -0.0 0.0 0.0 -0.0 0.0 0.0 1.06558e-13 4.45278e-14 -2.30541e-13 27.0564 39.2739 42.5675 -28.4231 -34.9054 75.1888 -7.33993 -58.2587 -13.1316 -1.23957e-09 -2.14781e-10 -4.46578e-10 -2.10617e-09 -3.10155e-10 -8.28868e-10 -1.23956e-09 -2.1478e-10 -4.46588e-10 7.73091 5.47488 0.417314 -1.23957e-09 -2.1478e-10 -4.46582e-10 2.90554 0.965183 0.102902 -1.23956e-09 -2.14783e-10 -4.46578e-10 10.2786 0.731801 0.0259123 -1.23957e-09 -2.14781e-10 -4.46575e-10 2.22167 -0.733487 -0.20892 1.06547e-13 4.45276e-14 -2.3064e-13 -15.1905 41.4112 -93.8479 21.9271 -15.6483 -43.593 0.0758539 -7.83333 1.10788 -1.07938e-09 -5.43817e-09 1.16699e-09 -1.87329e-09 -9.44204e-09 2.0271e-09 -1.07938e-09 -5.43818e-09 1.16699e-09 -7.73091 5.47488 -0.417314 -1.07938e-09 -5.43822e-09 1.167e-09 -2.90554 0.965183 -0.102902 -1.07938e-09 -5.43817e-09 1.16699e-09 -10.2786 0.731801 -0.0259123 -1.07937e-09 -5.43817e-09 1.16698e-09 -2.22167 -0.733487 0.20892 -2.03217e-16 0.0 -3.88251e-19 -3.74105 -38.1859 2.95154 -0.43952 42.7286 0.584202 0.66842 -14.9953 4.02892 2.03217e-16 0.0 3.88251e-19 22.7938 -33.8576 8.14546 0.239238 38.2414 -0.719386 0.751086 -8.21545 0.547967
64.1288 81.6833 -13.2066 -152.551 -79.7465 161.675 5.93642 19.6259 -5.50611 4.54583 -5.45634 -1.24932 -7.65188 -3.75916 9.94179 10.4192 -16.4569 24.1069 -0.0 0.0 0.0 -0.0 0.0 0.0 7.49397e-14 -1.86339e-13 -9.17721e-14 25.696 39.8514 46.6472 -28.3414 -32.7738 80.4826 -9.884 -62.0138 -15.7884 -1.53887e-09 -3.4945e-10 -7.23893e-10 -2.60941e-09 -5.82824e-10 -1.31709e-09 -1.53886e-09 -3.49449e-10 -7.23904e-10 7.73091 5.47488 0.417314 -1.53887e-09 -3.49449e-10 -7.23897e-10 2.90554 0.965183 0.102902 -1.53886e-09 -3.49451e-10 -7.23896e-10 10.2786 0.731801 0.0259123 -1.53887e-09 -3.49449e-10 -7.23895e-10 2.22167 -0.733487 -0.20892 7.48895e-14 -1.86335e-13 -9.18995e-14 -13.9513 36.7974 -99.3584 22.7007 -16.0951 -47.1668 0.104068 -8.92408 1.26506 -5.91622e-10 -3.17163e-09 8.04735e-10 -1.02731e-09 -5.5113e-09 1.39876e-09 -5.91627e-10 -3.17164e-09 8.04733e-10 -7.73091 5.47488 -0.417314 -5.91622e-10 -3.17168e-09 8.04743e-10 -2.90554 0.965183 -0.102902 -5.91626e-10 -3.17164e-09 8.04735e-10 -10.2786 0.731801 -0.0259123 -5.91617e-10 -3.17164e-09 8.04722e-10 -2.22167 -0.733487 0.20892 -2.03217e-16 0.0 -3.88251e-19 -3.80544 -40.8253 3.55369 -0.526208 45.9411 0.671965 0.899363 -16.4214 4.42659 2.03217e-16 0.0 3.88251e-19 24.8954 -35.6263 9.34895 0.296893 40.6827 -0.797418 0.789683 -8.88932 0.654757
